<mxfile host="app.diagrams.net" modified="2021-05-01T13:17:50.783Z" agent="5.0 (X11)" etag="N3NYg5mu8dMtO4LC8BLa" version="14.6.9" type="github">
  <diagram id="18X07u3Qb9bKqw4Xk2Qd" name="Page-1">
    <mxGraphModel dx="968" dy="539" grid="0" gridSize="10" guides="1" tooltips="1" connect="1" arrows="1" fold="1" page="1" pageScale="1" pageWidth="850" pageHeight="1100" background="#ffffff" math="0" shadow="0">
      <root>
        <mxCell id="0" />
        <mxCell id="1" parent="0" />
        <mxCell id="z-oRWFss3O_vHNhXuEPV-29" value="Đánh giá quá trình học tập" style="ellipse;whiteSpace=wrap;html=1;" parent="1" vertex="1">
          <mxGeometry x="373" y="235" width="120" height="80" as="geometry" />
        </mxCell>
        <mxCell id="z-oRWFss3O_vHNhXuEPV-40" value="Đánh giá thành tích cuối kì" style="ellipse;whiteSpace=wrap;html=1;" parent="1" vertex="1">
          <mxGeometry x="371" y="354" width="120" height="80" as="geometry" />
        </mxCell>
        <mxCell id="z-oRWFss3O_vHNhXuEPV-45" style="edgeStyle=orthogonalEdgeStyle;rounded=0;orthogonalLoop=1;jettySize=auto;html=1;entryX=0.75;entryY=0;entryDx=0;entryDy=0;exitX=0.5;exitY=0;exitDx=0;exitDy=0;" parent="1" source="z-oRWFss3O_vHNhXuEPV-29" target="z-oRWFss3O_vHNhXuEPV-65" edge="1">
          <mxGeometry relative="1" as="geometry">
            <Array as="points">
              <mxPoint x="433" y="182" />
              <mxPoint x="726" y="182" />
            </Array>
            <mxPoint x="777" y="602" as="sourcePoint" />
            <mxPoint x="729" y="292" as="targetPoint" />
          </mxGeometry>
        </mxCell>
        <mxCell id="z-oRWFss3O_vHNhXuEPV-46" value="Kết quả học tập" style="edgeLabel;html=1;align=center;verticalAlign=middle;resizable=0;points=[];" parent="z-oRWFss3O_vHNhXuEPV-45" vertex="1" connectable="0">
          <mxGeometry x="-0.0889" y="-1" relative="1" as="geometry">
            <mxPoint as="offset" />
          </mxGeometry>
        </mxCell>
        <mxCell id="z-oRWFss3O_vHNhXuEPV-47" style="edgeStyle=orthogonalEdgeStyle;rounded=0;orthogonalLoop=1;jettySize=auto;html=1;entryX=0.5;entryY=0;entryDx=0;entryDy=0;labelPosition=center;verticalLabelPosition=middle;align=center;verticalAlign=middle;exitX=0;exitY=1;exitDx=0;exitDy=0;" parent="1" source="z-oRWFss3O_vHNhXuEPV-40" target="z-oRWFss3O_vHNhXuEPV-88" edge="1">
          <mxGeometry relative="1" as="geometry">
            <Array as="points">
              <mxPoint x="389" y="439" />
              <mxPoint x="136" y="439" />
            </Array>
            <mxPoint x="225" y="7" as="sourcePoint" />
            <mxPoint x="141" y="292" as="targetPoint" />
          </mxGeometry>
        </mxCell>
        <mxCell id="z-oRWFss3O_vHNhXuEPV-48" value="&lt;div align=&quot;right&quot;&gt;Báo cáo thống kê kết quả học tập&lt;br&gt;&lt;/div&gt;" style="edgeLabel;html=1;align=center;verticalAlign=middle;resizable=0;points=[];" parent="z-oRWFss3O_vHNhXuEPV-47" vertex="1" connectable="0">
          <mxGeometry x="0.2477" relative="1" as="geometry">
            <mxPoint x="116.73" y="-3" as="offset" />
          </mxGeometry>
        </mxCell>
        <mxCell id="z-oRWFss3O_vHNhXuEPV-63" style="edgeStyle=orthogonalEdgeStyle;rounded=0;orthogonalLoop=1;jettySize=auto;html=1;exitX=0.5;exitY=1;exitDx=0;exitDy=0;entryX=1;entryY=1;entryDx=0;entryDy=0;" parent="1" source="z-oRWFss3O_vHNhXuEPV-65" target="z-oRWFss3O_vHNhXuEPV-40" edge="1">
          <mxGeometry relative="1" as="geometry">
            <Array as="points">
              <mxPoint x="696" y="468" />
              <mxPoint x="473" y="468" />
            </Array>
            <mxPoint x="669" y="292" as="sourcePoint" />
          </mxGeometry>
        </mxCell>
        <mxCell id="z-oRWFss3O_vHNhXuEPV-64" value="Thi học kì" style="edgeLabel;html=1;align=center;verticalAlign=middle;resizable=0;points=[];" parent="z-oRWFss3O_vHNhXuEPV-63" vertex="1" connectable="0">
          <mxGeometry x="0.3277" y="2" relative="1" as="geometry">
            <mxPoint x="24" y="-5" as="offset" />
          </mxGeometry>
        </mxCell>
        <mxCell id="z-oRWFss3O_vHNhXuEPV-65" value="HỌC SINH" style="rounded=0;whiteSpace=wrap;html=1;" parent="1" vertex="1">
          <mxGeometry x="636" y="308" width="120" height="60" as="geometry" />
        </mxCell>
        <mxCell id="z-oRWFss3O_vHNhXuEPV-66" value="" style="endArrow=classic;startArrow=classic;html=1;align=right;edgeStyle=orthogonalEdgeStyle;rounded=0;exitX=0.633;exitY=0.025;exitDx=0;exitDy=0;entryX=0.5;entryY=0;entryDx=0;entryDy=0;exitPerimeter=0;" parent="1" source="z-oRWFss3O_vHNhXuEPV-29" target="z-oRWFss3O_vHNhXuEPV-65" edge="1">
          <mxGeometry width="50" height="50" relative="1" as="geometry">
            <mxPoint x="732" y="600" as="sourcePoint" />
            <mxPoint x="699" y="292" as="targetPoint" />
            <Array as="points">
              <mxPoint x="449" y="203" />
              <mxPoint x="696" y="203" />
            </Array>
          </mxGeometry>
        </mxCell>
        <mxCell id="z-oRWFss3O_vHNhXuEPV-67" value="Tham gia học tập" style="edgeLabel;html=1;align=center;verticalAlign=middle;resizable=0;points=[];" parent="z-oRWFss3O_vHNhXuEPV-66" vertex="1" connectable="0">
          <mxGeometry x="-0.1375" y="-1" relative="1" as="geometry">
            <mxPoint as="offset" />
          </mxGeometry>
        </mxCell>
        <mxCell id="z-oRWFss3O_vHNhXuEPV-68" style="edgeStyle=orthogonalEdgeStyle;rounded=0;orthogonalLoop=1;jettySize=auto;html=1;entryX=0.5;entryY=1;entryDx=0;entryDy=0;" parent="1" target="z-oRWFss3O_vHNhXuEPV-81" edge="1">
          <mxGeometry relative="1" as="geometry">
            <mxPoint x="491" y="392" as="sourcePoint" />
            <mxPoint x="567" y="359" as="targetPoint" />
            <Array as="points">
              <mxPoint x="567" y="392" />
            </Array>
          </mxGeometry>
        </mxCell>
        <mxCell id="z-oRWFss3O_vHNhXuEPV-69" style="edgeStyle=orthogonalEdgeStyle;rounded=0;orthogonalLoop=1;jettySize=auto;html=1;exitX=0;exitY=0.5;exitDx=0;exitDy=0;entryX=0.5;entryY=0;entryDx=0;entryDy=0;" parent="1" source="z-oRWFss3O_vHNhXuEPV-29" target="z-oRWFss3O_vHNhXuEPV-84" edge="1">
          <mxGeometry relative="1" as="geometry" />
        </mxCell>
        <mxCell id="z-oRWFss3O_vHNhXuEPV-70" style="edgeStyle=orthogonalEdgeStyle;rounded=0;orthogonalLoop=1;jettySize=auto;html=1;exitX=0.608;exitY=1;exitDx=0;exitDy=0;exitPerimeter=0;" parent="1" source="z-oRWFss3O_vHNhXuEPV-40" target="z-oRWFss3O_vHNhXuEPV-65" edge="1">
          <mxGeometry relative="1" as="geometry">
            <Array as="points">
              <mxPoint x="444" y="496" />
              <mxPoint x="714" y="496" />
            </Array>
            <mxPoint x="653.04" y="290.98" as="targetPoint" />
          </mxGeometry>
        </mxCell>
        <mxCell id="z-oRWFss3O_vHNhXuEPV-71" value="Kết quả thi" style="edgeLabel;html=1;align=center;verticalAlign=middle;resizable=0;points=[];" parent="z-oRWFss3O_vHNhXuEPV-70" vertex="1" connectable="0">
          <mxGeometry x="-0.3992" relative="1" as="geometry">
            <mxPoint x="57" y="-1" as="offset" />
          </mxGeometry>
        </mxCell>
        <mxCell id="z-oRWFss3O_vHNhXuEPV-72" style="edgeStyle=orthogonalEdgeStyle;rounded=0;orthogonalLoop=1;jettySize=auto;html=1;exitX=0.367;exitY=1;exitDx=0;exitDy=0;entryX=0.5;entryY=0;entryDx=0;entryDy=0;exitPerimeter=0;" parent="1" source="z-oRWFss3O_vHNhXuEPV-40" target="z-oRWFss3O_vHNhXuEPV-93" edge="1">
          <mxGeometry relative="1" as="geometry">
            <Array as="points">
              <mxPoint x="415" y="519" />
              <mxPoint x="287" y="519" />
            </Array>
            <mxPoint x="287" y="408" as="targetPoint" />
          </mxGeometry>
        </mxCell>
        <mxCell id="z-oRWFss3O_vHNhXuEPV-73" value="Yêu cầu sửa điểm" style="edgeLabel;html=1;align=center;verticalAlign=middle;resizable=0;points=[];rotation=0;" parent="z-oRWFss3O_vHNhXuEPV-72" vertex="1" connectable="0">
          <mxGeometry x="0.2775" y="-4" relative="1" as="geometry">
            <mxPoint x="9" y="3" as="offset" />
          </mxGeometry>
        </mxCell>
        <mxCell id="z-oRWFss3O_vHNhXuEPV-81" value="Bảng điểm" style="shape=partialRectangle;whiteSpace=wrap;html=1;left=0;right=0;fillColor=none;rounded=0;shadow=0;glass=0;sketch=0;" parent="1" vertex="1">
          <mxGeometry x="524" y="329" width="85" height="29" as="geometry" />
        </mxCell>
        <mxCell id="z-oRWFss3O_vHNhXuEPV-84" value="Bảng đánh giá" style="shape=partialRectangle;whiteSpace=wrap;html=1;left=0;right=0;fillColor=none;rounded=0;shadow=0;glass=0;sketch=0;" parent="1" vertex="1">
          <mxGeometry x="261" y="320" width="85" height="29" as="geometry" />
        </mxCell>
        <mxCell id="z-oRWFss3O_vHNhXuEPV-88" value="BAN GIÁM HIỆU" style="rounded=0;whiteSpace=wrap;html=1;" parent="1" vertex="1">
          <mxGeometry x="76" y="308" width="120" height="60" as="geometry" />
        </mxCell>
        <mxCell id="z-oRWFss3O_vHNhXuEPV-93" value="Quản lý điểm" style="shape=partialRectangle;whiteSpace=wrap;html=1;bottom=1;right=0;left=1;top=1;fillColor=none;routingCenterX=-0.5;" parent="1" vertex="1">
          <mxGeometry x="227" y="545" width="119" height="41" as="geometry" />
        </mxCell>
        <mxCell id="z-oRWFss3O_vHNhXuEPV-94" value="" style="endArrow=none;html=1;exitX=0.125;exitY=0;exitDx=0;exitDy=0;exitPerimeter=0;entryX=0.134;entryY=1.098;entryDx=0;entryDy=0;entryPerimeter=0;" parent="1" source="z-oRWFss3O_vHNhXuEPV-93" target="z-oRWFss3O_vHNhXuEPV-93" edge="1">
          <mxGeometry width="50" height="50" relative="1" as="geometry">
            <mxPoint x="604" y="474" as="sourcePoint" />
            <mxPoint x="386" y="620" as="targetPoint" />
          </mxGeometry>
        </mxCell>
        <mxCell id="z-oRWFss3O_vHNhXuEPV-102" value="" style="rounded=0;whiteSpace=wrap;html=1;fillOpacity=30;fillColor=#d5e8d4;strokeColor=#82b366;dashed=1;" parent="1" vertex="1">
          <mxGeometry x="244.5" y="166" width="373" height="355" as="geometry" />
        </mxCell>
        <mxCell id="7jTHOD_QbhDUhOaxIyPp-3" style="edgeStyle=orthogonalEdgeStyle;rounded=0;orthogonalLoop=1;jettySize=auto;html=1;exitX=0.25;exitY=1;exitDx=0;exitDy=0;entryX=0.05;entryY=0.725;entryDx=0;entryDy=0;entryPerimeter=0;" edge="1" parent="1" source="7jTHOD_QbhDUhOaxIyPp-1" target="z-oRWFss3O_vHNhXuEPV-40">
          <mxGeometry relative="1" as="geometry" />
        </mxCell>
        <mxCell id="7jTHOD_QbhDUhOaxIyPp-1" value="Lịch thi" style="shape=partialRectangle;whiteSpace=wrap;html=1;left=0;right=0;fillColor=none;rounded=0;shadow=0;glass=0;sketch=0;" vertex="1" parent="1">
          <mxGeometry x="257" y="362" width="85" height="29" as="geometry" />
        </mxCell>
        <mxCell id="7jTHOD_QbhDUhOaxIyPp-4" style="edgeStyle=orthogonalEdgeStyle;rounded=0;orthogonalLoop=1;jettySize=auto;html=1;exitX=0.25;exitY=0;exitDx=0;exitDy=0;entryX=1;entryY=0;entryDx=0;entryDy=0;" edge="1" parent="1" source="7jTHOD_QbhDUhOaxIyPp-2" target="z-oRWFss3O_vHNhXuEPV-29">
          <mxGeometry relative="1" as="geometry">
            <Array as="points">
              <mxPoint x="541" y="241" />
              <mxPoint x="500" y="241" />
              <mxPoint x="500" y="247" />
            </Array>
          </mxGeometry>
        </mxCell>
        <mxCell id="7jTHOD_QbhDUhOaxIyPp-5" style="edgeStyle=orthogonalEdgeStyle;rounded=0;orthogonalLoop=1;jettySize=auto;html=1;exitX=0.25;exitY=1;exitDx=0;exitDy=0;entryX=1;entryY=0;entryDx=0;entryDy=0;" edge="1" parent="1" source="7jTHOD_QbhDUhOaxIyPp-2" target="z-oRWFss3O_vHNhXuEPV-40">
          <mxGeometry relative="1" as="geometry">
            <Array as="points">
              <mxPoint x="522" y="290" />
              <mxPoint x="522" y="322" />
              <mxPoint x="473" y="322" />
            </Array>
          </mxGeometry>
        </mxCell>
        <mxCell id="7jTHOD_QbhDUhOaxIyPp-2" value="Danh sách học sinh" style="shape=partialRectangle;whiteSpace=wrap;html=1;left=0;right=0;fillColor=none;rounded=0;shadow=0;glass=0;sketch=0;" vertex="1" parent="1">
          <mxGeometry x="520" y="260.5" width="85" height="29" as="geometry" />
        </mxCell>
      </root>
    </mxGraphModel>
  </diagram>
</mxfile>
